<svg width="409" height="80" viewBox="0 0 409 80" fill="none" xmlns="http://www.w3.org/2000/svg">
<path fill-rule="evenodd" clip-rule="evenodd" d="M11.8263 77.1212C20.0385 77.1212 24.5385 79.0665 24.5385 79.0665C24.6394 79.027 24.7797 78.9751 24.9588 78.9138L25.1921 78.8359C26.8704 78.2891 30.9998 77.2207 37.1459 77.2207C45.3583 77.2207 48.9722 78.6121 48.9722 78.6121L48.2059 79.6724C48.2059 79.6724 46.015 78.3139 36.3781 78.4134C29.8709 78.4803 27.0594 79.231 25.189 79.7885C24.9835 79.8795 24.7615 79.9712 24.6417 80L23.257 79.5729C21.1321 79.0775 18.7048 78.377 12.5945 78.3139C4.01146 78.2253 1.33464 79.2932 0.85176 79.5278L0.808872 79.5494C0.779619 79.5646 0.766245 79.5729 0.766245 79.5729L0 78.5126C0 78.5126 3.6143 77.1212 11.8263 77.1212ZM25.418 0V3.99755C25.9083 4.28619 33.6547 9.00251 34.869 19.1403H38.6902V20.8938H34.9451V66.6743C38.5211 66.8382 41.4601 67.5407 42.3999 67.7876L42.5523 67.8284C42.6593 67.8574 42.7154 67.8739 42.7154 67.8739L45.2781 71.7256L45.9129 72.6797L46.2451 73.1785L46.8801 74.1328L49.0667 77.4194C49.0667 77.4194 42.9325 75.7294 36.5815 75.7294C31.5569 75.7294 27.067 76.9238 25.301 77.4608L24.561 77.7176L23.7659 77.461C22.0001 76.9238 17.51 75.7294 12.4847 75.7294C6.13369 75.7294 0 77.4194 0 77.4194L2.18656 74.1328L2.82138 73.1785L3.15836 72.6728L3.78881 71.7256L6.35105 67.8739C6.35105 67.8739 6.4072 67.8574 6.51429 67.8283L6.66691 67.7876C7.60778 67.5405 10.55 66.8375 14.1292 66.6747V20.8938H10.3765V19.1403H14.2051C15.2638 10.3025 21.285 5.58588 23.1369 4.33026L23.3189 4.20894C23.4842 4.1008 23.5979 4.03213 23.6487 4.0021V0H25.418ZM7.11927 68.9671L2.18962 75.7294C2.18962 75.7294 12.8499 72.582 23.4072 75.8436L23.7692 75.9582C24.0241 76.0404 24.2789 76.1266 24.5332 76.2168C24.7878 76.1266 25.0425 76.0404 25.2971 75.9582L25.6522 75.8289C36.2163 72.5819 46.8768 75.7294 46.8768 75.7294L41.9474 68.9671C34.7205 66.3815 25.4173 69.0666 25.4173 69.0666L24.613 69.3298L24.5057 69.3649L23.6487 69.0666C23.6487 69.0666 14.3459 66.3815 7.11927 68.9671ZM23.3305 70.0343C23.5203 70.031 23.6624 70.0642 23.7578 70.1335C23.9371 70.2636 24.083 70.511 24.1956 70.8766C24.3347 71.3405 24.4259 71.8276 24.4696 72.3373L24.7171 71.4489C24.884 71.0237 25.1038 70.5585 25.3764 70.0521L26.2251 70.0375C26.1742 70.1706 25.94 70.5619 25.5212 71.2122C25.3526 71.476 25.2308 71.6749 25.1565 71.8088C25.1182 71.8771 25.0773 71.9455 25.034 72.0162L24.5595 72.7824C24.5765 72.9018 24.5885 73.0229 24.5962 73.1447C24.6039 73.2674 24.6074 73.3681 24.6074 73.4476C24.6052 73.7369 24.5735 73.9636 24.5144 74.1272C24.4698 74.2503 24.4086 74.3372 24.3301 74.3894C24.2522 74.4405 24.1652 74.4676 24.0698 74.4691C23.9533 74.4711 23.8523 74.4366 23.7672 74.366C23.6817 74.2958 23.6399 74.2059 23.6408 74.0964C23.6428 73.9283 23.6874 73.7365 23.7744 73.5215C23.8621 73.3064 23.99 73.07 24.1586 72.8119C23.9693 71.7572 23.8195 71.1279 23.7099 70.9225C23.6006 70.7169 23.4595 70.6157 23.2868 70.6185C23.182 70.6207 23.0991 70.646 23.039 70.6956C22.9789 70.7446 22.9262 70.8874 22.8811 71.124L22.5553 71.1297C22.5555 71.103 22.5557 71.0787 22.5559 71.0568L22.5568 70.9533L22.557 70.9227C22.5601 70.6215 22.6428 70.3899 22.805 70.2293C22.9351 70.103 23.1103 70.038 23.3305 70.0343ZM35.0179 69.9433C35.7339 69.6694 36.0748 69.7164 36.611 69.773C37.0256 69.8163 37.5426 69.9561 37.6355 70.2995C37.7295 70.6445 37.335 70.9032 37.201 70.7138C36.871 70.248 36.7063 70.1338 36.1352 70.0878C35.8262 70.075 35.4118 70.1457 35.1168 70.2939C34.9086 70.4105 34.3225 70.778 34.3774 71.5254C34.4474 71.8838 35.2242 72.0446 35.6123 72.0673C36.9353 72.1453 37.2594 72.5889 37.2633 72.9141C37.2762 73.2567 36.8572 74.0186 36.0374 73.9575C36.0374 73.9575 35.103 74.0669 35.2974 73.5543C35.3755 73.349 35.5795 73.3033 35.7711 73.5075C36.1017 73.86 36.5106 73.5098 36.6029 73.4149C36.9001 73.112 36.7693 72.7089 36.3757 72.6342C36.1553 72.5924 35.3352 72.5895 34.9425 72.5705C34.1957 72.5347 33.6123 72.3189 33.6024 71.6595C33.5965 70.6129 34.5766 70.1123 35.0179 69.9433ZM11.9621 68.6958C12.1731 68.6925 12.3522 68.7514 12.4996 68.8735C12.7075 69.0488 12.8742 69.3536 12.9988 69.7872L13.64 71.9947C13.7336 72.3145 13.8388 72.5187 13.9555 72.6071C14.0609 72.6909 14.1856 72.7312 14.3288 72.7293C14.4635 72.7271 14.5757 72.6907 14.6647 72.6201C14.7539 72.5494 14.8106 72.4123 14.8344 72.2088L15.1659 72.2034C15.165 72.297 15.1644 72.3572 15.1642 72.3845C15.1611 72.6736 15.0625 72.9096 14.8674 73.0922C14.7137 73.2357 14.5142 73.3098 14.2687 73.3141C14.0498 73.3174 13.8582 73.2537 13.6938 73.1217C13.5289 72.9902 13.3813 72.6983 13.2501 72.2471L12.9507 71.0811L11.6137 73.2935L10.7346 73.3083L12.6618 70.2356L12.5993 70.0078C12.5186 69.7086 12.4158 69.5123 12.2912 69.4182C12.1665 69.3242 12.0312 69.2787 11.8851 69.2811C11.7541 69.2832 11.6378 69.3218 11.5361 69.3972C11.4342 69.4724 11.3622 69.6163 11.32 69.8286L11.0117 69.8336C11.0244 69.4507 11.1392 69.1538 11.3568 68.9426C11.5203 68.7824 11.722 68.7001 11.9621 68.6958ZM18.9666 70.0758C19.302 70.07 19.63 70.1346 19.9515 70.2683C20.2725 70.4022 20.5168 70.5913 20.6841 70.8349C20.8513 71.0787 20.9333 71.3246 20.9312 71.5734C20.9283 71.8499 20.8345 72.1197 20.6504 72.3836C20.4663 72.6469 20.2117 72.8582 19.8872 73.0177C19.5622 73.1769 19.2019 73.2599 18.8061 73.2664C18.2504 73.2762 17.7807 73.1375 17.3973 72.8504C17.0138 72.5639 16.8244 72.2118 16.8283 71.794C16.8314 71.5119 16.9305 71.2341 17.126 70.961C17.3212 70.6884 17.5896 70.4739 17.9311 70.3183C18.2727 70.1627 18.6178 70.0819 18.9666 70.0758ZM29.7887 69.8885C30.1244 69.883 30.4528 69.947 30.7741 70.0813C31.0949 70.2148 31.3391 70.404 31.5064 70.6475C31.6735 70.8913 31.7557 71.1377 31.7535 71.3858C31.7507 71.6627 31.6575 71.9327 31.4727 72.196C31.2886 72.4593 31.0341 72.6708 30.7098 72.8303C30.3846 72.9898 30.0242 73.0725 29.6284 73.0795C29.0725 73.0886 28.6028 72.9499 28.2199 72.6634C27.8361 72.3765 27.6465 72.0244 27.6509 71.607C27.6535 71.3245 27.7526 71.0471 27.9485 70.7741C28.1436 70.5011 28.4119 70.2865 28.7535 70.1307C29.0951 69.9754 29.4399 69.8945 29.7887 69.8885ZM18.7971 70.4199C18.5275 70.4243 18.2893 70.5194 18.0818 70.7051C17.8745 70.8904 17.7691 71.1615 17.7656 71.5188C17.7614 71.9279 17.8745 72.2657 18.1054 72.5318C18.3359 72.7984 18.6313 72.9286 18.9917 72.9221C19.2557 72.9178 19.4881 72.8226 19.6882 72.6365C19.8887 72.4501 19.9909 72.1726 19.9946 71.8046C19.9994 71.3073 19.8474 70.9333 19.5388 70.6819C19.3171 70.5025 19.0702 70.4152 18.7971 70.4199ZM29.6194 70.2326C29.3498 70.2369 29.1117 70.332 28.9044 70.5177C28.6968 70.703 28.5914 70.9743 28.5879 71.3314C28.5838 71.7405 28.6968 72.0784 28.9278 72.3447C29.1583 72.611 29.4539 72.7412 29.8141 72.7347C30.078 72.7304 30.3105 72.635 30.5106 72.4491C30.7111 72.263 30.8132 71.9854 30.8169 71.6175C30.8222 71.1204 30.6702 70.7459 30.3612 70.4946C30.1392 70.3153 29.8924 70.2278 29.6194 70.2326ZM21.8745 56.5046C21.7628 57.2134 21.6537 57.9082 21.5513 58.5613C22.0602 59.1431 22.596 59.4644 22.596 59.4644L22.4127 60.1308H21.3051C21.0724 61.6143 20.915 62.6256 20.915 62.6256H19.2056V66.8712C20.7092 67.0736 22.2166 67.4258 23.6487 67.9835V56.5603H21.8745V56.5046ZM27.2 56.5603H25.418V67.9822C26.8527 67.4236 28.3625 67.0715 29.869 66.8691V62.6256H28.151C28.151 62.6256 27.9934 61.6143 27.7607 60.1308H26.6951L26.5118 59.4644C26.5118 59.4644 27.0226 59.1585 27.521 58.6018C27.4193 57.9543 27.3111 57.2646 27.2 56.5603ZM18.2064 20.8938H17.4262V66.6974C17.6853 66.7137 17.9456 66.7341 18.2064 66.7583V20.8938ZM31.6481 20.8938H30.8677V66.7566C31.1288 66.7325 31.3888 66.7122 31.6481 66.6961V20.8938ZM16.3024 20.8938H15.5027V66.6409C15.7671 66.64 16.0339 66.6431 16.3024 66.6491V20.8938ZM33.5714 20.8938H32.7717V66.648C33.0404 66.642 33.307 66.6392 33.5714 66.64V20.8938ZM20.5365 60.1308H19.2056V61.9588H20.2419C20.2419 61.9588 20.3576 61.2413 20.5365 60.1308ZM29.869 60.1308H28.5298C28.7082 61.2413 28.8241 61.9588 28.8241 61.9588H29.869V60.1308ZM20.4687 20.8938H19.2056V59.4088H20.6526C20.6742 59.2731 20.697 59.1329 20.7199 58.9901C20.264 58.2969 19.4934 56.8516 19.9377 55.52C20.2931 54.4549 20.8995 53.781 21.6266 53.3598C22.0554 50.6984 22.4328 48.3572 22.4945 47.9795C22.6393 47.0885 22.9312 45.9346 23.6487 45.4431V24.0449C22.0611 23.704 20.8124 22.4667 20.4687 20.8938ZM29.869 20.8938H28.598C28.2538 22.4667 27.0054 23.704 25.418 24.0449V45.4433C26.1348 45.9352 26.4265 47.0887 26.5715 47.9795C26.6327 48.3559 27.008 50.6834 27.4351 53.3344C28.1827 53.7533 28.8071 54.4326 29.1701 55.52C29.6253 56.8838 28.8044 58.3695 28.3542 59.0415C28.3745 59.1667 28.3942 59.2894 28.4134 59.4088H29.869V20.8938ZM27.6096 54.417C27.7889 55.5317 27.9713 56.6639 28.1383 57.701C28.3986 57.1729 28.5431 56.5395 28.4029 55.8171C28.2908 55.2409 27.9964 54.7787 27.6096 54.417ZM21.4483 54.4684C21.0869 54.8224 20.8115 55.2669 20.7048 55.8171C20.5699 56.5098 20.6974 57.1213 20.9379 57.6362C21.0995 56.6327 21.2751 55.5434 21.4483 54.4684ZM23.6487 53.4211C23.2107 53.4922 22.7342 53.6352 22.2918 53.8642C22.1866 54.5269 22.0788 55.2092 21.9721 55.8871H23.6487V53.4211ZM25.418 53.4142V55.8871H27.0937C26.9857 55.2017 26.8766 54.5117 26.7705 53.8421C26.327 53.6194 25.8525 53.4803 25.418 53.4142ZM23.6487 46.5907C23.3797 47.0404 23.3113 47.7277 23.1671 48.4792C23.0821 48.9245 22.7825 50.7785 22.4282 53.0042C22.8212 52.877 23.2332 52.8018 23.6487 52.7608V46.5907ZM25.418 46.592V52.7569C25.8319 52.7953 26.2426 52.8666 26.6352 52.9894C26.282 50.7703 25.9837 48.9236 25.8989 48.4792C25.7548 47.7284 25.6865 47.0414 25.418 46.592ZM23.6487 20.8938H21.5894C21.8855 21.871 22.6622 22.6409 23.6487 22.9343V20.8938ZM27.4771 20.8938H25.418V22.9343C26.404 22.6409 27.1812 21.871 27.4771 20.8938ZM23.6487 5.99481C18.0735 8.72146 16.2047 16.2435 15.6807 19.1403H16.4581C18.2029 11.1445 22.7755 9.02916 23.6487 8.69394V5.99481ZM25.418 5.99091V8.6909C26.27 9.01594 30.8657 11.1187 32.616 19.1403H33.3934C32.8694 16.2422 30.9991 8.71431 25.418 5.99091ZM23.6487 9.99366C19.9069 11.3996 18.1544 17.0147 17.616 19.1403H18.4452C19.2069 15.4994 22.8111 13.049 23.6487 12.5236V9.99366ZM25.418 9.99041V12.5186C26.2402 13.0336 29.8648 15.4881 30.6291 19.1403H31.4583C30.9195 17.0132 29.165 11.3913 25.418 9.99041ZM23.6487 13.9535C21.067 15.4277 19.9707 17.6925 19.5161 19.1403H20.4687C20.8124 17.5673 22.0611 16.3302 23.6487 15.9891V13.9535ZM25.418 13.949V15.9891C27.0054 16.3302 28.2538 17.5673 28.598 19.1403H29.5584C29.1034 17.691 28.0049 15.4229 25.418 13.949ZM23.6487 17.0999C22.6622 17.3933 21.8855 18.1632 21.5894 19.1403H23.6487V17.0999ZM25.418 17.0999V19.1403H27.4771C27.1814 18.1632 26.404 17.3931 25.418 17.0999Z" fill="white"/>
<path d="M73.36 10.54V15.2H78.44V16.7H73.36V21.5H79.04V23H71.54V9.04H79.04V10.54H73.36ZM87.1739 9.06V17.88C87.1739 19.12 87.4739 20.04 88.0739 20.64C88.6872 21.24 89.5339 21.54 90.6139 21.54C91.6806 21.54 92.5139 21.24 93.1139 20.64C93.7272 20.04 94.0339 19.12 94.0339 17.88V9.06H95.8539V17.86C95.8539 19.02 95.6206 20 95.1539 20.8C94.6872 21.5867 94.0539 22.1733 93.2539 22.56C92.4672 22.9467 91.5806 23.14 90.5939 23.14C89.6072 23.14 88.7139 22.9467 87.9139 22.56C87.1272 22.1733 86.5006 21.5867 86.0339 20.8C85.5806 20 85.3539 19.02 85.3539 17.86V9.06H87.1739ZM109.83 23L106.51 17.3H104.31V23H102.49V9.06H106.99C108.043 9.06 108.93 9.24 109.65 9.6C110.383 9.96 110.93 10.4467 111.29 11.06C111.65 11.6733 111.83 12.3733 111.83 13.16C111.83 14.12 111.55 14.9667 110.99 15.7C110.443 16.4333 109.617 16.92 108.51 17.16L112.01 23H109.83ZM104.31 15.84H106.99C107.977 15.84 108.717 15.6 109.21 15.12C109.703 14.6267 109.95 13.9733 109.95 13.16C109.95 12.3333 109.703 11.6933 109.21 11.24C108.73 10.7867 107.99 10.56 106.99 10.56H104.31V15.84ZM124.578 23.14C123.285 23.14 122.105 22.84 121.038 22.24C119.971 21.6267 119.125 20.78 118.498 19.7C117.885 18.6067 117.578 17.38 117.578 16.02C117.578 14.66 117.885 13.44 118.498 12.36C119.125 11.2667 119.971 10.42 121.038 9.82C122.105 9.20667 123.285 8.9 124.578 8.9C125.885 8.9 127.071 9.20667 128.138 9.82C129.205 10.42 130.045 11.26 130.658 12.34C131.271 13.42 131.578 14.6467 131.578 16.02C131.578 17.3933 131.271 18.62 130.658 19.7C130.045 20.78 129.205 21.6267 128.138 22.24C127.071 22.84 125.885 23.14 124.578 23.14ZM124.578 21.56C125.551 21.56 126.425 21.3333 127.198 20.88C127.985 20.4267 128.598 19.78 129.038 18.94C129.491 18.1 129.718 17.1267 129.718 16.02C129.718 14.9 129.491 13.9267 129.038 13.1C128.598 12.26 127.991 11.6133 127.218 11.16C126.445 10.7067 125.565 10.48 124.578 10.48C123.591 10.48 122.711 10.7067 121.938 11.16C121.165 11.6133 120.551 12.26 120.098 13.1C119.658 13.9267 119.438 14.9 119.438 16.02C119.438 17.1267 119.658 18.1 120.098 18.94C120.551 19.78 121.165 20.4267 121.938 20.88C122.725 21.3333 123.605 21.56 124.578 21.56ZM146.901 13.14C146.901 14.3 146.501 15.2667 145.701 16.04C144.914 16.8 143.707 17.18 142.081 17.18H139.401V23H137.581V9.06H142.081C143.654 9.06 144.847 9.44 145.661 10.2C146.487 10.96 146.901 11.94 146.901 13.14ZM142.081 15.68C143.094 15.68 143.841 15.46 144.321 15.02C144.801 14.58 145.041 13.9533 145.041 13.14C145.041 11.42 144.054 10.56 142.081 10.56H139.401V15.68H142.081ZM154.583 10.54V15.2H159.663V16.7H154.583V21.5H160.263V23H152.763V9.04H160.263V10.54H154.583ZM174.857 19.9H168.777L167.657 23H165.737L170.777 9.14H172.877L177.897 23H175.977L174.857 19.9ZM174.337 18.42L171.817 11.38L169.297 18.42H174.337ZM194.653 23H192.833L185.513 11.9V23H183.693V9.04H185.513L192.833 20.12V9.04H194.653V23ZM217.628 23L214.308 17.3H212.108V23H210.288V9.06H214.788C215.841 9.06 216.728 9.24 217.448 9.6C218.181 9.96 218.728 10.4467 219.088 11.06C219.448 11.6733 219.628 12.3733 219.628 13.16C219.628 14.12 219.348 14.9667 218.788 15.7C218.241 16.4333 217.414 16.92 216.308 17.16L219.808 23H217.628ZM212.108 15.84H214.788C215.774 15.84 216.514 15.6 217.008 15.12C217.501 14.6267 217.748 13.9733 217.748 13.16C217.748 12.3333 217.501 11.6933 217.008 11.24C216.528 10.7867 215.788 10.56 214.788 10.56H212.108V15.84ZM227.876 10.54V15.2H232.956V16.7H227.876V21.5H233.556V23H226.056V9.04H233.556V10.54H227.876ZM247.79 9.06V10.54H241.73V15.24H246.65V16.72H241.73V23H239.91V9.06H247.79ZM259.908 23.14C258.614 23.14 257.434 22.84 256.368 22.24C255.301 21.6267 254.454 20.78 253.828 19.7C253.214 18.6067 252.908 17.38 252.908 16.02C252.908 14.66 253.214 13.44 253.828 12.36C254.454 11.2667 255.301 10.42 256.368 9.82C257.434 9.20667 258.614 8.9 259.908 8.9C261.214 8.9 262.401 9.20667 263.468 9.82C264.534 10.42 265.374 11.26 265.988 12.34C266.601 13.42 266.908 14.6467 266.908 16.02C266.908 17.3933 266.601 18.62 265.988 19.7C265.374 20.78 264.534 21.6267 263.468 22.24C262.401 22.84 261.214 23.14 259.908 23.14ZM259.908 21.56C260.881 21.56 261.754 21.3333 262.528 20.88C263.314 20.4267 263.928 19.78 264.368 18.94C264.821 18.1 265.048 17.1267 265.048 16.02C265.048 14.9 264.821 13.9267 264.368 13.1C263.928 12.26 263.321 11.6133 262.548 11.16C261.774 10.7067 260.894 10.48 259.908 10.48C258.921 10.48 258.041 10.7067 257.268 11.16C256.494 11.6133 255.881 12.26 255.428 13.1C254.988 13.9267 254.768 14.9 254.768 16.02C254.768 17.1267 254.988 18.1 255.428 18.94C255.881 19.78 256.494 20.4267 257.268 20.88C258.054 21.3333 258.934 21.56 259.908 21.56ZM280.25 23L276.93 17.3H274.73V23H272.91V9.06H277.41C278.464 9.06 279.35 9.24 280.07 9.6C280.804 9.96 281.35 10.4467 281.71 11.06C282.07 11.6733 282.25 12.3733 282.25 13.16C282.25 14.12 281.97 14.9667 281.41 15.7C280.864 16.4333 280.037 16.92 278.93 17.16L282.43 23H280.25ZM274.73 15.84H277.41C278.397 15.84 279.137 15.6 279.63 15.12C280.124 14.6267 280.37 13.9733 280.37 13.16C280.37 12.3333 280.124 11.6933 279.63 11.24C279.15 10.7867 278.41 10.56 277.41 10.56H274.73V15.84ZM302.818 9.16V23H300.998V12.68L296.398 23H295.118L290.498 12.66V23H288.678V9.16H290.638L295.758 20.6L300.878 9.16H302.818ZM311.325 10.54V15.2H316.405V16.7H311.325V21.5H317.005V23H309.505V9.04H317.005V10.54H311.325ZM327.699 9.06C329.219 9.06 330.532 9.34667 331.639 9.92C332.759 10.48 333.612 11.2867 334.199 12.34C334.799 13.3933 335.099 14.6333 335.099 16.06C335.099 17.4867 334.799 18.7267 334.199 19.78C333.612 20.82 332.759 21.62 331.639 22.18C330.532 22.7267 329.219 23 327.699 23H323.359V9.06H327.699ZM327.699 21.5C329.499 21.5 330.872 21.0267 331.819 20.08C332.765 19.12 333.239 17.78 333.239 16.06C333.239 14.3267 332.759 12.9733 331.799 12C330.852 11.0267 329.485 10.54 327.699 10.54H325.179V21.5H327.699ZM73.36 34.54V39.2H78.44V40.7H73.36V45.5H79.04V47H71.54V33.04H79.04V34.54H73.36ZM96.9139 33.06L91.6539 47H89.5539L84.2939 33.06H86.2339L90.6139 45.08L94.9939 33.06H96.9139ZM110.75 43.9H104.67L103.55 47H101.63L106.67 33.14H108.77L113.79 47H111.87L110.75 43.9ZM110.23 42.42L107.71 35.38L105.19 42.42H110.23ZM130.546 47H128.726L121.406 35.9V47H119.586V33.04H121.406L128.726 44.12V33.04H130.546V47ZM147.809 37.1C147.422 36.2867 146.862 35.66 146.129 35.22C145.395 34.7667 144.542 34.54 143.569 34.54C142.595 34.54 141.715 34.7667 140.929 35.22C140.155 35.66 139.542 36.3 139.089 37.14C138.649 37.9667 138.429 38.9267 138.429 40.02C138.429 41.1133 138.649 42.0733 139.089 42.9C139.542 43.7267 140.155 44.3667 140.929 44.82C141.715 45.26 142.595 45.48 143.569 45.48C144.929 45.48 146.049 45.0733 146.929 44.26C147.809 43.4467 148.322 42.3467 148.469 40.96H142.909V39.48H150.409V40.88C150.302 42.0267 149.942 43.08 149.329 44.04C148.715 44.9867 147.909 45.74 146.909 46.3C145.909 46.8467 144.795 47.12 143.569 47.12C142.275 47.12 141.095 46.82 140.029 46.22C138.962 45.6067 138.115 44.76 137.489 43.68C136.875 42.6 136.569 41.38 136.569 40.02C136.569 38.66 136.875 37.44 137.489 36.36C138.115 35.2667 138.962 34.42 140.029 33.82C141.095 33.2067 142.275 32.9 143.569 32.9C145.049 32.9 146.355 33.2667 147.489 34C148.635 34.7333 149.469 35.7667 149.989 37.1H147.809ZM158.235 34.54V39.2H163.315V40.7H158.235V45.5H163.915V47H156.415V33.04H163.915V34.54H158.235ZM172.089 45.52H176.969V47H170.269V33.06H172.089V45.52ZM184.322 33.06V47H182.502V33.06H184.322ZM190.344 40.02C190.344 38.66 190.65 37.44 191.264 36.36C191.877 35.2667 192.71 34.4133 193.764 33.8C194.83 33.1867 196.01 32.88 197.304 32.88C198.824 32.88 200.15 33.2467 201.284 33.98C202.417 34.7133 203.244 35.7533 203.764 37.1H201.584C201.197 36.26 200.637 35.6133 199.904 35.16C199.184 34.7067 198.317 34.48 197.304 34.48C196.33 34.48 195.457 34.7067 194.684 35.16C193.91 35.6133 193.304 36.26 192.864 37.1C192.424 37.9267 192.204 38.9 192.204 40.02C192.204 41.1267 192.424 42.1 192.864 42.94C193.304 43.7667 193.91 44.4067 194.684 44.86C195.457 45.3133 196.33 45.54 197.304 45.54C198.317 45.54 199.184 45.32 199.904 44.88C200.637 44.4267 201.197 43.78 201.584 42.94H203.764C203.244 44.2733 202.417 45.3067 201.284 46.04C200.15 46.76 198.824 47.12 197.304 47.12C196.01 47.12 194.83 46.82 193.764 46.22C192.71 45.6067 191.877 44.76 191.264 43.68C190.65 42.6 190.344 41.38 190.344 40.02ZM218.313 43.9H212.233L211.113 47H209.193L214.233 33.14H216.333L221.353 47H219.433L218.313 43.9ZM217.793 42.42L215.273 35.38L212.753 42.42H217.793ZM228.969 45.52H233.849V47H227.149V33.06H228.969V45.52ZM247.634 40.02C247.634 38.66 247.941 37.44 248.554 36.36C249.168 35.2667 250.001 34.4133 251.054 33.8C252.121 33.1867 253.301 32.88 254.594 32.88C256.114 32.88 257.441 33.2467 258.574 33.98C259.708 34.7133 260.534 35.7533 261.054 37.1H258.874C258.488 36.26 257.928 35.6133 257.194 35.16C256.474 34.7067 255.608 34.48 254.594 34.48C253.621 34.48 252.748 34.7067 251.974 35.16C251.201 35.6133 250.594 36.26 250.154 37.1C249.714 37.9267 249.494 38.9 249.494 40.02C249.494 41.1267 249.714 42.1 250.154 42.94C250.594 43.7667 251.201 44.4067 251.974 44.86C252.748 45.3133 253.621 45.54 254.594 45.54C255.608 45.54 256.474 45.32 257.194 44.88C257.928 44.4267 258.488 43.78 258.874 42.94H261.054C260.534 44.2733 259.708 45.3067 258.574 46.04C257.441 46.76 256.114 47.12 254.594 47.12C253.301 47.12 252.121 46.82 251.054 46.22C250.001 45.6067 249.168 44.76 248.554 43.68C247.941 42.6 247.634 41.38 247.634 40.02ZM273.683 47.14C272.39 47.14 271.21 46.84 270.143 46.24C269.077 45.6267 268.23 44.78 267.603 43.7C266.99 42.6067 266.683 41.38 266.683 40.02C266.683 38.66 266.99 37.44 267.603 36.36C268.23 35.2667 269.077 34.42 270.143 33.82C271.21 33.2067 272.39 32.9 273.683 32.9C274.99 32.9 276.177 33.2067 277.243 33.82C278.31 34.42 279.15 35.26 279.763 36.34C280.377 37.42 280.683 38.6467 280.683 40.02C280.683 41.3933 280.377 42.62 279.763 43.7C279.15 44.78 278.31 45.6267 277.243 46.24C276.177 46.84 274.99 47.14 273.683 47.14ZM273.683 45.56C274.657 45.56 275.53 45.3333 276.303 44.88C277.09 44.4267 277.703 43.78 278.143 42.94C278.597 42.1 278.823 41.1267 278.823 40.02C278.823 38.9 278.597 37.9267 278.143 37.1C277.703 36.26 277.097 35.6133 276.323 35.16C275.55 34.7067 274.67 34.48 273.683 34.48C272.697 34.48 271.817 34.7067 271.043 35.16C270.27 35.6133 269.657 36.26 269.203 37.1C268.763 37.9267 268.543 38.9 268.543 40.02C268.543 41.1267 268.763 42.1 269.203 42.94C269.657 43.78 270.27 44.4267 271.043 44.88C271.83 45.3333 272.71 45.56 273.683 45.56ZM297.646 47H295.826L288.506 35.9V47H286.686V33.04H288.506L295.826 44.12V33.04H297.646V47ZM315.869 33.06L310.609 47H308.509L303.249 33.06H305.189L309.569 45.08L313.949 33.06H315.869ZM323.284 34.54V39.2H328.364V40.7H323.284V45.5H328.964V47H321.464V33.04H328.964V34.54H323.284ZM346.278 47H344.458L337.138 35.9V47H335.318V33.04H337.138L344.458 44.12V33.04H346.278V47ZM361.561 33.06V34.54H357.761V47H355.941V34.54H352.121V33.06H361.561ZM369.221 33.06V47H367.401V33.06H369.221ZM382.243 47.14C380.949 47.14 379.769 46.84 378.703 46.24C377.636 45.6267 376.789 44.78 376.163 43.7C375.549 42.6067 375.243 41.38 375.243 40.02C375.243 38.66 375.549 37.44 376.163 36.36C376.789 35.2667 377.636 34.42 378.703 33.82C379.769 33.2067 380.949 32.9 382.243 32.9C383.549 32.9 384.736 33.2067 385.803 33.82C386.869 34.42 387.709 35.26 388.323 36.34C388.936 37.42 389.243 38.6467 389.243 40.02C389.243 41.3933 388.936 42.62 388.323 43.7C387.709 44.78 386.869 45.6267 385.803 46.24C384.736 46.84 383.549 47.14 382.243 47.14ZM382.243 45.56C383.216 45.56 384.089 45.3333 384.863 44.88C385.649 44.4267 386.263 43.78 386.703 42.94C387.156 42.1 387.383 41.1267 387.383 40.02C387.383 38.9 387.156 37.9267 386.703 37.1C386.263 36.26 385.656 35.6133 384.883 35.16C384.109 34.7067 383.229 34.48 382.243 34.48C381.256 34.48 380.376 34.7067 379.603 35.16C378.829 35.6133 378.216 36.26 377.763 37.1C377.323 37.9267 377.103 38.9 377.103 40.02C377.103 41.1267 377.323 42.1 377.763 42.94C378.216 43.78 378.829 44.4267 379.603 44.88C380.389 45.3333 381.269 45.56 382.243 45.56ZM406.205 47H404.385L397.065 35.9V47H395.245V33.04H397.065L404.385 44.12V33.04H406.205V47ZM71.94 67.84C73.22 66.7733 74.24 65.8867 75 65.18C75.76 64.46 76.3933 63.7133 76.9 62.94C77.4067 62.1667 77.66 61.4067 77.66 60.66C77.66 59.98 77.5 59.4467 77.18 59.06C76.86 58.6733 76.3667 58.48 75.7 58.48C75.0333 58.48 74.52 58.7067 74.16 59.16C73.8 59.6 73.6133 60.2067 73.6 60.98H70.88C70.9333 59.38 71.4067 58.1667 72.3 57.34C73.2067 56.5133 74.3533 56.1 75.74 56.1C77.26 56.1 78.4267 56.5067 79.24 57.32C80.0533 58.12 80.46 59.18 80.46 60.5C80.46 61.54 80.18 62.5333 79.62 63.48C79.06 64.4267 78.42 65.2533 77.7 65.96C76.98 66.6533 76.04 67.4933 74.88 68.48H80.78V70.8H70.9V68.72L71.94 67.84ZM86.1444 63.52C86.1444 61.2133 86.5577 59.4067 87.3844 58.1C88.2244 56.7933 89.611 56.14 91.5444 56.14C93.4777 56.14 94.8577 56.7933 95.6844 58.1C96.5244 59.4067 96.9444 61.2133 96.9444 63.52C96.9444 65.84 96.5244 67.66 95.6844 68.98C94.8577 70.3 93.4777 70.96 91.5444 70.96C89.611 70.96 88.2244 70.3 87.3844 68.98C86.5577 67.66 86.1444 65.84 86.1444 63.52ZM94.1844 63.52C94.1844 62.5333 94.1177 61.7067 93.9844 61.04C93.8644 60.36 93.611 59.8067 93.2244 59.38C92.851 58.9533 92.291 58.74 91.5444 58.74C90.7977 58.74 90.231 58.9533 89.8444 59.38C89.471 59.8067 89.2177 60.36 89.0844 61.04C88.9644 61.7067 88.9044 62.5333 88.9044 63.52C88.9044 64.5333 88.9644 65.3867 89.0844 66.08C89.2044 66.76 89.4577 67.3133 89.8444 67.74C90.231 68.1533 90.7977 68.36 91.5444 68.36C92.291 68.36 92.8577 68.1533 93.2444 67.74C93.631 67.3133 93.8844 66.76 94.0044 66.08C94.1244 65.3867 94.1844 64.5333 94.1844 63.52ZM103.554 67.84C104.834 66.7733 105.854 65.8867 106.614 65.18C107.374 64.46 108.007 63.7133 108.514 62.94C109.021 62.1667 109.274 61.4067 109.274 60.66C109.274 59.98 109.114 59.4467 108.794 59.06C108.474 58.6733 107.981 58.48 107.314 58.48C106.647 58.48 106.134 58.7067 105.774 59.16C105.414 59.6 105.227 60.2067 105.214 60.98H102.494C102.547 59.38 103.021 58.1667 103.914 57.34C104.821 56.5133 105.967 56.1 107.354 56.1C108.874 56.1 110.041 56.5067 110.854 57.32C111.667 58.12 112.074 59.18 112.074 60.5C112.074 61.54 111.794 62.5333 111.234 63.48C110.674 64.4267 110.034 65.2533 109.314 65.96C108.594 66.6533 107.654 67.4933 106.494 68.48H112.394V70.8H102.514V68.72L103.554 67.84ZM127.558 58.84H121.078V62.26C121.358 61.9133 121.758 61.6333 122.278 61.42C122.798 61.1933 123.352 61.08 123.938 61.08C125.005 61.08 125.878 61.3133 126.558 61.78C127.238 62.2467 127.732 62.8467 128.038 63.58C128.345 64.3 128.498 65.0733 128.498 65.9C128.498 67.4333 128.058 68.6667 127.178 69.6C126.312 70.5333 125.072 71 123.458 71C121.938 71 120.725 70.62 119.818 69.86C118.912 69.1 118.398 68.1067 118.278 66.88H120.998C121.118 67.4133 121.385 67.84 121.798 68.16C122.225 68.48 122.765 68.64 123.418 68.64C124.205 68.64 124.798 68.3933 125.198 67.9C125.598 67.4067 125.798 66.7533 125.798 65.94C125.798 65.1133 125.592 64.4867 125.178 64.06C124.778 63.62 124.185 63.4 123.398 63.4C122.838 63.4 122.372 63.54 121.998 63.82C121.625 64.1 121.358 64.4733 121.198 64.94H118.518V56.38H127.558V58.84Z" fill="white"/>
</svg>
